<svg width="200" height="200" viewBox="0 0 200 200" fill="none" xmlns="http://www.w3.org/2000/svg">
<path d="M165 0H35C15.67 0 0 15.67 0 35V165C0 184.33 15.67 200 35 200H165C184.33 200 200 184.33 200 165V35C200 15.67 184.33 0 165 0Z" fill="black"/>
<path d="M100.661 118.119H70.5676L63.0443 140.956C62.9579 141.652 62.4823 142 61.6175 142H47.9978C47.133 142 46.8304 141.565 47.0898 140.695L74.0698 63.1801C74.6751 61.8752 75.0643 59.4392 75.2372 55.8723C75.2372 55.3504 75.5399 55.0894 76.1452 55.0894H94.8237C95.2561 55.0894 95.602 55.3069 95.8614 55.7418L125.954 140.826C126.214 141.609 125.954 142 125.176 142H109.87C109.265 142 108.833 141.696 108.573 141.087L100.661 118.119ZM73.9401 105.461H97.2882C96.9423 104.243 95.1264 98.7187 91.8403 88.8879C88.6408 78.9702 86.5222 72.1844 85.4845 68.5305H85.3547C84.317 72.9674 80.5122 85.2775 73.9401 105.461Z" fill="white"/>
<path d="M134.008 140.826V79.4922C134.008 78.7962 134.354 78.4482 135.045 78.4482H149.443C150.135 78.4482 150.481 78.7962 150.481 79.4922V140.956C150.481 141.652 150.135 142 149.443 142H135.175C134.397 142 134.008 141.609 134.008 140.826ZM148.665 65.2681C147.109 66.834 144.99 67.617 142.309 67.617C139.629 67.617 137.51 66.834 135.953 65.2681C134.397 63.7021 133.619 61.5707 133.619 58.8738C133.619 56.2638 134.44 54.1324 136.083 52.4794C137.726 50.8265 139.845 50 142.439 50C145.033 50 147.109 50.8265 148.665 52.4794C150.222 54.1324 151 56.2638 151 58.8738C151 61.5707 150.222 63.7021 148.665 65.2681Z" fill="white"/>
</svg>
